<?xml version="1.0" encoding="UTF-8" standalone="no"?><!-- Generator: Gravit.io --><svg xmlns="http://www.w3.org/2000/svg" xmlns:xlink="http://www.w3.org/1999/xlink" style="isolation:isolate" viewBox="598.049 136.66 200.214 200.189" width="200.214pt" height="200.189pt"><defs><clipPath id="_clipPath_MDqhBVgkU3V05fpBfq4NVuo4Dfl5KiYE"><rect x="598.049" y="136.66" width="200.214" height="200.189"/></clipPath></defs><g clip-path="url(#_clipPath_MDqhBVgkU3V05fpBfq4NVuo4Dfl5KiYE)"><path d=" M 598.604 226.291 C 604.378 171.354 653.673 131.44 708.617 137.215 C 763.561 142.99 803.481 192.28 797.707 247.217 C 791.933 302.154 742.637 342.068 687.693 336.293 C 632.749 330.518 592.83 281.228 598.604 226.291 Z " fill="rgb(46,46,46)"/><clipPath id="_clipPath_ppdxmPPEZjCKrX14XYU9wU1aysDZLcdb"><path d=" M 598.604 226.291 C 604.378 171.354 653.673 131.44 708.617 137.215 C 763.561 142.99 803.481 192.28 797.707 247.217 C 791.933 302.154 742.637 342.068 687.693 336.293 C 632.749 330.518 592.83 281.228 598.604 226.291 Z " fill="rgb(46,46,46)"/></clipPath><g clip-path="url(#_clipPath_ppdxmPPEZjCKrX14XYU9wU1aysDZLcdb)"><linearGradient id="_lgradient_0" x1="-0.26248719708867263" y1="0.5764638692081548" x2="1.0000000000000002" y2="0.5" gradientTransform="matrix(132.278,13.903,-2.277,21.661,630.674,242.577)" gradientUnits="userSpaceOnUse"><stop offset="0%" stop-opacity="1" style="stop-color:rgb(255,0,0)"/><stop offset="100%" stop-opacity="1" style="stop-color:rgb(255,153,0)"/></linearGradient><path d=" M 710.106 250.926 L 708.048 270.508 L 714.066 271.141 L 713.847 273.219 L 698.858 271.644 L 699.076 269.565 L 705.094 270.198 L 707.152 250.616 L 659.121 245.567 L 657.062 265.149 L 670.739 266.587 L 670.52 268.665 L 628.397 264.238 L 628.615 262.16 L 635.727 262.907 L 637.785 243.325 L 659.121 245.567 L 707.152 250.616 L 710.106 250.926 L 736.15 253.663 L 759.998 256.17 L 762.952 256.48 L 760.675 278.141 L 745.358 276.531 L 736.15 253.663 L 710.106 250.926 Z " fill="url(#_lgradient_0)"/><linearGradient id="_lgradient_1" x1="0" y1="0.5" x2="1" y2="0.5" gradientTransform="matrix(140.948,14.814,-5.461,51.955,644.258,178.761)" gradientUnits="userSpaceOnUse"><stop offset="0%" stop-opacity="1" style="stop-color:rgb(255,0,0)"/><stop offset="100%" stop-opacity="1" style="stop-color:rgb(255,153,0)"/></linearGradient><path d=" M 753.654 229.128 L 743.621 203.74 L 713.424 200.566 L 713.205 202.644 L 719.223 203.277 L 716.912 225.266 L 705.213 224.036 C 705.366 223.314 705.472 222.544 705.556 221.749 L 705.556 221.749 L 705.556 221.749 Q 706.844 209.497 699.247 203.887 L 699.247 203.887 L 699.247 203.887 Q 691.651 198.277 675.13 196.541 L 675.13 196.541 L 642.963 193.16 L 642.745 195.239 L 649.856 195.986 L 647.545 217.975 L 668.88 220.217 L 682.776 221.678 L 705.213 224.036 L 716.912 225.266 L 719.866 225.576 L 729.553 226.594 L 753.654 229.128 L 769.758 230.82 L 772.712 231.131 L 775.023 209.142 L 781.04 209.774 L 781.259 207.696 L 766.269 206.12 L 766.051 208.199 L 772.069 208.831 L 769.758 230.82 L 753.654 229.128 Z  M 682.776 221.678 L 683.327 216.427 L 683.327 216.427 Q 684.305 207.128 682.343 203.161 L 682.343 203.161 L 682.343 203.161 Q 680.382 199.194 674.146 198.539 L 674.146 198.539 L 671.192 198.229 L 668.88 220.217 L 682.776 221.678 L 682.776 221.678 Z  M 729.553 226.594 L 721.786 207.307 L 719.866 225.576 L 729.553 226.594 L 729.553 226.594 Z " fill="url(#_lgradient_1)"/><linearGradient id="_lgradient_2" x1="0" y1="0.5" x2="1" y2="0.5"><stop offset="0%" stop-opacity="1" style="stop-color:rgb(255,0,0)"/><stop offset="97.91666666666666%" stop-opacity="1" style="stop-color:rgb(255,153,0)"/></linearGradient><line x1="596.808" y1="238.012" x2="795.738" y2="258.921" vector-effect="non-scaling-stroke" stroke-width="3" stroke="url(#_lgradient_2)" stroke-linejoin="miter" stroke-linecap="round" stroke-miterlimit="3"/><linearGradient id="_lgradient_3" x1="0" y1="0.5" x2="1" y2="0.5"><stop offset="0%" stop-opacity="1" style="stop-color:rgb(255,0,0)"/><stop offset="97.91666666666666%" stop-opacity="1" style="stop-color:rgb(255,153,0)"/></linearGradient><line x1="600.311" y1="214.228" x2="799.24" y2="235.137" vector-effect="non-scaling-stroke" stroke-width="3" stroke="url(#_lgradient_3)" stroke-linejoin="miter" stroke-linecap="round" stroke-miterlimit="3"/></g></g></svg>